:version 1.10
:name ASF
:units
  mass 1
  length 1
  angle deg
:documentation
  ASF file generated by Kaydara
:root
  axis xyz
  order  tx ty tz rx ry rz
  position 0 0 0
  orientation 0 0 0
:bonedata
  begin
    id 1
    name RightUpLegDummy
    direction -1 2.30186e-007 8.31532e-007
    length 4.04083
    axis 0 0 0 xyz
  end
  begin
    id 2
    name RightUpLeg
    direction -0.000919234 -0.999985 0.00544864
    length 17.4221
    axis -3.80308 -0.00076134 -0.0523649 xyz
    dof rx ry rz
  end
  begin
    id 3
    name RightLeg
    direction -0.000919271 -0.999984 -0.00555045
    length 17.1239
    axis 4.00314 0.0181274 -0.183583 xyz
    dof rx ry rz
  end
  begin
    id 4
    name RightFoot
    direction -2.57843e-005 -4.04509e-007 1
    length 6.72091
    axis 8.18909e-005 -0.122003 -0.403008 xyz
    dof rx ry rz
  end
  begin
    id 5
    name RightToes
    direction 0.00116825 -0.014069 0.9999
    length 3.85082
    axis 0.000514414 0.540638 -0.356797 xyz
    dof rx ry rz
  end
  begin
    id 6
    name SpineDummy
    direction 0.0168869 0.966876 -0.254689
    length 6.99894
    axis 0 0 0 xyz
  end
  begin
    id 7
    name Spine
    direction -0.0132008 0.999903 0.00446247
    length 11.1999
    axis -0.00148109 0.00725429 0.756411 xyz
    dof rx ry rz
  end
  begin
    id 8
    name Spine1
    direction 0 0 0
    length 0
    axis -0.000934958 0.0245693 1.46543 xyz
    dof rx ry rz
  end
  begin
    id 9
    name HEadDummy
    direction -0.0255732 0.999672 0.00128215
    length 3.43865
    axis -0.000934958 0.0245693 1.46543 xyz
  end
  begin
    id 10
    name HEad
    direction -0.0472656 0.980052 0.19304
    length 5.12695
    axis -0.000934954 0.0245693 1.46543 xyz
    dof rx ry rz
  end
  begin
    id 11
    name LeftShoulder1Dummy
    direction 0.953098 0.301717 -0.023914
    length 3.68488
    axis -0.000934958 0.0245693 1.46543 xyz
  end
  begin
    id 12
    name LeftShoulder1
    direction 0.962466 0.271167 0.0112566
    length 3.13809
    axis -0.000934958 0.0245693 1.46543 xyz
    dof rx ry rz
  end
  begin
    id 13
    name LeftArm
    direction 0.999943 0.00455037 -0.00961766
    length 11.3419
    axis -23.1648 0.685459 1.22814 xyz
    dof rx ry rz
  end
  begin
    id 14
    name LeftForeArm
    direction 0.999332 0.0131969 0.0340885
    length 8.70632
    axis -9.90633 0.618216 0.0826942 xyz
    dof rx ry rz
  end
  begin
    id 15
    name LeftHand
    direction 0.994373 -0.0366703 0.0993905
    length 5.32135
    axis 0.00675269 0.680415 0.445699 xyz
    dof rx ry rz
  end
  begin
    id 16
    name RightShoulderDummy
    direction -0.967298 0.252589 -0.0230903
    length 3.68488
    axis -0.000934958 0.0245693 1.46543 xyz
  end
  begin
    id 17
    name RightShoulder
    direction -0.975062 0.221602 0.0120823
    length 3.13809
    axis 0.216257 0.0246515 1.45863 xyz
    dof rx ry rz
  end
  begin
    id 18
    name RightArm
    direction -0.99886 -0.00851186 -0.0469687
    length 10.3947
    axis -23.196 0.23503 -0.532632 xyz
    dof rx ry rz
  end
  begin
    id 19
    name RightForeArm
    direction -0.99909 0.00114866 0.0426317
    length 8.68355
    axis -9.91764 -0.134943 0.610517 xyz
    dof rx ry rz
  end
  begin
    id 20
    name RightHand
    direction -0.992888 -0.0489538 0.10852
    length 5.28593
    axis -0.00275396 -0.197403 0.246414 xyz
    dof rx ry rz
  end
  begin
    id 21
    name LeftUpLegDummy
    direction 1 -2.30186e-007 -8.31532e-007
    length 4.04083
    axis 0 0 0 xyz
  end
  begin
    id 22
    name LeftUpLeg
    direction -0.000920097 -1 2.79241e-006
    length 17.4221
    axis -3.48782 0.00143434 -0.0532288 xyz
    dof rx ry rz
  end
  begin
    id 23
    name LeftLeg
    direction -0.000920097 -1 2.7912e-006
    length 17.1239
    axis 3.68162 -0.00806512 -0.0529896 xyz
    dof rx ry rz
  end
  begin
    id 24
    name LeftFoot
    direction -2.57845e-005 -3.987e-007 1
    length 6.72091
    axis 3.02372e-005 -0.00147829 -0.214229 xyz
    dof rx ry rz
  end
  begin
    id 25
    name LeftToes
    direction 0.00813577 -0.00488255 0.999955
    length 3.85048
    axis 3.89895e-005 -0.0014783 -0.214229 xyz
    dof rx ry rz
  end
:hierarchy
  begin
    root RightUpLegDummy SpineDummy LeftUpLegDummy
    RightUpLegDummy RightUpLeg
    RightUpLeg RightLeg
    RightLeg RightFoot
    RightFoot RightToes
    SpineDummy Spine
    Spine Spine1
    Spine1 HEadDummy LeftShoulder1Dummy RightShoulderDummy
    HEadDummy HEad
    LeftShoulder1Dummy LeftShoulder1
    LeftShoulder1 LeftArm
    LeftArm LeftForeArm
    LeftForeArm LeftHand
    RightShoulderDummy RightShoulder
    RightShoulder RightArm
    RightArm RightForeArm
    RightForeArm RightHand
    LeftUpLegDummy LeftUpLeg
    LeftUpLeg LeftLeg
    LeftLeg LeftFoot
    LeftFoot LeftToes
  end

:SAMPLES-PER-SECOND 30
:FULLY-SPECIFIED
:DEGREES
1
root  -37.6916 34.5872 10.7395 -128.156 86.5805 -135.8
RightUpLeg  -12.5887 -12.341 3.82844
RightLeg  9.8971 3.42324 0.37363
RightFoot  3.77205 0.00323222 0.338329
RightToes  -30.4018 -0.146697 -0.254749
Spine  -0.98659 0.568911 1.61186
Spine1  -2.01753 1.34438 3.65751
HEad  -46.1532 0.868164 2.82113
LeftShoulder1  -1.94126e-019 -3.10601e-018 -2.51263e-017
LeftArm  -3.24743 21.6656 -85.0844
LeftForeArm  32.4893 -26.6777 -4.00592
LeftHand  -0.321031 -1.92157 5.28199
RightShoulder  -4.96962e-017 0 -2.36833e-017
RightArm  -27.1466 -18.1976 74.7739
RightForeArm  55.2366 13.4746 1.33646
RightHand  -0.344756 -1.39358 -9.90213
LeftUpLeg  -15.8964 5.73114 6.07551
LeftLeg  22.9957 16.2799 5.60786
LeftFoot  0.661474 -0.00091982 0.320942
LeftToes  -22.8004 1.83942e-006 5.51297e-008
2
root  -37.5861 34.6374 10.6132 -132.647 87.148 -140.319
RightUpLeg  -12.5123 -11.3592 3.02738
RightLeg  10.0325 2.67833 0.298967
RightFoot  3.79223 0.00614076 0.296774
RightToes  -28.6902 -0.135006 -0.24276
Spine  -1.11456 0.489701 1.3922
Spine1  -2.28465 1.18488 3.23494
HEad  -47.2675 1.42376 2.64883
LeftShoulder1  -1.94126e-019 -3.10601e-018 -2.51263e-017
LeftArm  -4.23642 21.7793 -85.1079
LeftForeArm  32.5859 -25.9514 -3.87633
LeftHand  -0.336719 -1.59976 5.76061
RightShoulder  -4.96962e-017 0 -2.36833e-017
RightArm  -27.0131 -18.3802 75.1713
RightForeArm  54.8686 13.881 1.28905
RightHand  -0.349443 -1.32038 -9.86636
LeftUpLeg  -14.5381 5.84878 5.28842
LeftLeg  20.6128 16.6591 4.98461
LeftFoot  1.49601 -0.00556308 0.587676
LeftToes  -22.6018 1.83942e-006 5.51297e-008
3
root  -37.4965 34.6817 10.492 -144.33 87.3075 -151.898
RightUpLeg  -12.3092 -10.9266 2.23668
RightLeg  10.2056 2.01644 0.23149
RightFoot  3.73148 0.0089773 0.256247
RightToes  -27.8475 -0.129383 -0.236731
Spine  -1.17761 0.398119 1.1423
Spine1  -2.42233 0.994331 2.74929
HEad  -48.8904 1.65957 2.63198
LeftShoulder1  -1.94126e-019 -3.10601e-018 -2.51263e-017
LeftArm  -4.7642 21.6144 -84.8018
LeftForeArm  32.5205 -25.0845 -3.77248
LeftHand  -0.343185 -1.5151 5.93345
RightShoulder  -4.96962e-017 0 -2.36833e-017
RightArm  -26.5872 -18.9242 75.6525
RightForeArm  53.6649 14.5666 1.22259
RightHand  -0.337799 -1.39402 -9.69969
LeftUpLeg  -13.4049 7.52949 4.54205
LeftLeg  18.5113 15.0861 3.93943
LeftFoot  2.24641 -0.0114957 0.747898
LeftToes  -22.9049 1.83942e-006 5.51297e-008
4
root  -37.4212 34.7051 10.355 -154.388 86.89 -161.986
RightUpLeg  -12.131 -11.3141 1.72411
RightLeg  10.1744 1.80873 0.206753
RightFoot  3.71586 0.0097679 0.244951
RightToes  -27.4188 -0.125832 -0.233632
Spine  -1.27333 0.177759 1.03297
Spine1  -2.62054 0.545339 2.55013
HEad  -50.8192 1.92587 2.58201
LeftShoulder1  -1.94126e-019 -3.10601e-018 -2.51263e-017
LeftArm  -5.21217 21.4639 -84.543
LeftForeArm  32.3434 -24.0957 -3.6619
LeftHand  -0.343161 -1.47532 5.96422
RightShoulder  -4.96962e-017 0 -2.36833e-017
RightArm  -25.9609 -19.5135 75.9293
RightForeArm  52.6816 15.1181 1.18371
RightHand  -0.338531 -1.35556 -9.6326
LeftUpLeg  -12.6967 8.24077 4.05907
LeftLeg  16.9219 13.9457 3.24309
LeftFoot  2.82249 -0.0154467 0.842844
LeftToes  -23.614 1.83942e-006 5.51297e-008
5
root  -37.3363 34.7215 10.2082 -160.019 86.1182 -167.625
RightUpLeg  -11.7738 -12.0767 1.38642
RightLeg  9.91581 1.70301 0.186971
RightFoot  3.73357 0.0101479 0.239522
RightToes  -26.9609 -0.123563 -0.230298
Spine  -1.35554 -0.0707583 1.02635
Spine1  -2.78938 0.0378506 2.55476
HEad  -52.7133 2.01579 2.53072
LeftShoulder1  -1.94126e-019 -3.10601e-018 -2.51263e-017
LeftArm  -5.54925 21.2703 -84.3408
LeftForeArm  32.8342 -22.9884 -3.52189
LeftHand  -0.346126 -1.48631 6.00576
RightShoulder  -4.96962e-017 0 -2.36833e-017
RightArm  -25.7198 -20.1324 76.0477
RightForeArm  52.5686 15.366 1.1648
RightHand  -0.340513 -1.18059 -9.55092
LeftUpLeg  -12.1308 7.62671 3.73649
LeftLeg  15.7367 13.8639 2.9272
LeftFoot  3.05373 -0.016564 0.893302
LeftToes  -23.1442 1.83942e-006 5.51297e-008
6
root  -37.2359 34.7318 10.0655 -164.704 85.6208 -172.106
RightUpLeg  -11.1717 -12.344 0.872547
RightLeg  9.63233 1.41392 0.148354
RightFoot  3.77563 0.0114002 0.22163
RightToes  -26.8035 -0.12207 -0.228607
Spine  -1.36054 -0.0788896 0.908443
Spine1  -2.80323 0.00311173 2.32293
HEad  -54.3571 1.55157 2.79215
LeftShoulder1  -1.94126e-019 -3.10601e-018 -2.51263e-017
LeftArm  -5.93732 21.0058 -83.9511
LeftForeArm  33.578 -22.1551 -3.45388
LeftHand  -0.354204 -1.55802 6.08481
RightShoulder  -4.96962e-017 0 -2.36833e-017
RightArm  -25.5516 -20.9536 76.2631
RightForeArm  52.4629 15.3724 1.16691
RightHand  -0.342818 -1.26405 -9.55011
LeftUpLeg  -11.3207 6.39513 3.33782
LeftLeg  14.7332 14.616 2.81949
LeftFoot  3.28627 -0.0208851 0.993103
LeftToes  -22.4957 1.83942e-006 5.51297e-008
7
root  -37.1371 34.7385 9.95472 -165.784 85.256 -173.2
RightUpLeg  -10.8645 -12.5204 0.658471
RightLeg  9.42182 1.17435 0.119049
RightFoot  3.82885 0.0125005 0.205908
RightToes  -26.5682 -0.120957 -0.227376
Spine  -1.46167 -0.0412024 0.888016
Spine1  -3.0048 0.0597 2.28947
HEad  -55.4723 1.02013 2.96602
LeftShoulder1  -1.94126e-019 -3.10601e-018 -2.51263e-017
LeftArm  -6.41262 21.1309 -83.5349
LeftForeArm  33.7257 -21.7083 -3.43089
LeftHand  -0.379875 -0.922936 7.11591
RightShoulder  -4.96962e-017 0 -2.36833e-017
RightArm  -26.2142 -21.6209 76.4014
RightForeArm  53.3055 14.7497 1.20833
RightHand  -0.349381 -1.24423 -9.69147
LeftUpLeg  -10.7837 4.98931 3.14817
LeftLeg  13.9081 15.6955 2.79209
LeftFoot  3.44663 -0.0257523 1.10092
LeftToes  -21.8599 1.83942e-006 5.51297e-008
8
root  -37.046 34.7378 9.85296 -167.263 85.0111 -174.74
RightUpLeg  -10.7504 -12.5028 0.389126
RightLeg  9.4716 0.862135 0.0884292
RightFoot  3.74118 0.0141325 0.18259
RightToes  -26.3265 -0.120165 -0.226528
Spine  -1.57612 0.0811837 0.813475
Spine1  -3.23353 0.279875 2.1441
HEad  -56.3073 0.285114 3.23281
LeftShoulder1  -1.94126e-019 -3.10601e-018 -2.51263e-017
LeftArm  -6.62832 21.5186 -82.9155
LeftForeArm  33.4669 -21.7514 -3.45826
LeftHand  -0.37933 -0.838146 7.1954
RightShoulder  -4.96962e-017 0 -2.36833e-017
RightArm  -27.4725 -22.3216 76.6203
RightForeArm  54.4983 13.8947 1.29236
RightHand  -0.346598 -1.33511 -9.81868
LeftUpLeg  -10.2517 3.94049 2.92012
LeftLeg  12.9983 16.5081 2.66716
LeftFoot  3.68761 -0.031361 1.21979
LeftToes  -21.7577 1.83942e-006 5.51297e-008
9
root  -36.9672 34.7309 9.74839 -168.834 84.7942 -176.407
RightUpLeg  -10.7604 -12.8315 0.0963333
RightLeg  9.65989 0.973574 0.102942
RightFoot  3.61552 0.0139899 0.184628
RightToes  -26.5737 -0.119633 -0.225983
Spine  -1.711 0.169748 0.719386
Spine1  -3.5046 0.431039 1.95903
HEad  -57.0163 -0.241771 3.54903
LeftShoulder1  -1.94126e-019 -3.10601e-018 -2.51263e-017
LeftArm  -6.64054 22.1483 -82.1856
LeftForeArm  32.9469 -21.9908 -3.49163
LeftHand  -0.371552 -0.614243 7.27317
RightShoulder  -4.96962e-017 0 -2.36833e-017
RightArm  -29.3794 -22.8273 76.8719
RightForeArm  56.461 12.7113 1.41585
RightHand  -0.351308 -1.3663 -10.0282
LeftUpLeg  -9.72794 3.83653 2.6573
LeftLeg  11.944 16.41 2.34752
LeftFoot  3.98618 -0.0341212 1.29389
LeftToes  -22.0497 1.83942e-006 5.51297e-008
10
root  -36.8997 34.7254 9.6311 -170.586 84.4889 -178.216
RightUpLeg  -10.7139 -13.4993 -0.231138
RightLeg  9.78 1.31222 0.141163
RightFoot  3.53545 0.01287 0.200629
RightToes  -26.9345 -0.119304 -0.225662
Spine  -1.79075 0.180645 0.627722
Spine1  -3.66505 0.426749 1.78326
HEad  -57.9881 -0.657797 3.76543
LeftShoulder1  -1.94126e-019 -3.10601e-018 -2.51263e-017
LeftArm  -6.70409 22.7189 -81.478
LeftForeArm  32.619 -21.9517 -3.48362
LeftHand  -0.367822 -0.632139 7.20095
RightShoulder  -4.96962e-017 0 -2.36833e-017
RightArm  -31.3457 -23.1328 77.0966
RightForeArm  58.579 11.5812 1.50506
RightHand  -0.359922 -1.12107 -9.71299
LeftUpLeg  -9.17603 4.1083 2.35469
LeftLeg  10.8258 15.8695 1.96145
LeftFoot  4.26201 -0.0341739 1.3254
LeftToes  -22.0401 1.83942e-006 5.51297e-008
11
root  -36.8455 34.722 9.52753 -170.641 84.0413 -178.407
RightUpLeg  -10.6649 -13.9563 -0.367114
RightLeg  9.72529 1.31042 0.13971
RightFoot  3.55211 0.0129649 0.199273
RightToes  -26.9064 -0.119118 -0.225488
Spine  -1.87822 0.14647 0.600271
Spine1  -3.8389 0.337388 1.73911
HEad  -59.0325 -1.03497 3.98429
LeftShoulder1  -1.94126e-019 -3.10601e-018 -2.51263e-017
LeftArm  -6.77477 23.2673 -80.9181
LeftForeArm  32.4207 -21.5626 -3.42694
LeftHand  -0.36638 -0.576614 7.23494
RightShoulder  -4.96962e-017 0 -2.36833e-017
RightArm  -32.4199 -23.4673 77.1875
RightForeArm  59.7599 10.8375 1.53506
RightHand  -0.355028 -1.28733 -9.83054
LeftUpLeg  -8.82325 4.0591 2.21465
LeftLeg  9.86637 15.528 1.66031
LeftFoot  4.49395 -0.0343342 1.35806
LeftToes  -21.9838 1.83942e-006 5.51297e-008
12
root  -36.7987 34.7197 9.42162 -170.941 83.528 -178.79
RightUpLeg  -10.5163 -14.2734 -0.541051
RightLeg  9.59505 1.10799 0.115751
RightFoot  3.57678 0.013816 0.187111
RightToes  -26.8373 -0.119016 -0.225381
Spine  -1.93739 0.109729 0.559334
Spine1  -3.95586 0.246 1.66751
HEad  -60.0486 -1.50951 4.21129
LeftShoulder1  -1.94126e-019 -3.10601e-018 -2.51263e-017
LeftArm  -7.05938 23.6153 -80.5055
LeftForeArm  32.5389 -20.6503 -3.31616
LeftHand  -0.367894 -0.536391 7.31031
RightShoulder  -4.96962e-017 0 -2.36833e-017
RightArm  -33.0154 -23.8709 77.249
RightForeArm  60.2834 10.5248 1.53859
RightHand  -0.353713 -1.25755 -9.83008
LeftUpLeg  -8.53998 3.89839 2.04241
LeftLeg  9.12765 15.2627 1.43638
LeftFoot  4.67252 -0.0339451 1.38165
LeftToes  -21.8463 1.83942e-006 5.51297e-008
13
root  -36.7543 34.7169 9.32736 -170.873 83.0346 -178.805
RightUpLeg  -10.3341 -14.3404 -0.654752
RightLeg  9.37379 0.654176 0.0662301
RightFoot  3.65295 0.0156125 0.161442
RightToes  -26.6078 -0.118939 -0.225263
Spine  -1.9769 0.0802046 0.527851
Spine1  -4.03328 0.175015 1.61383
HEad  -60.9131 -2.031 4.49433
LeftShoulder1  -1.94126e-019 -3.10601e-018 -2.51263e-017
LeftArm  -7.54479 23.8385 -80.2238
LeftForeArm  32.9978 -19.3281 -3.15347
LeftHand  -0.374508 -0.527262 7.45106
RightShoulder  -4.96962e-017 0 -2.36833e-017
RightArm  -33.109 -24.2817 77.2998
RightForeArm  60.2849 10.6089 1.53794
RightHand  -0.352773 -1.19607 -9.81915
LeftUpLeg  -8.31136 3.8932 1.9306
LeftLeg  8.49627 14.8363 1.23434
LeftFoot  4.80495 -0.0318374 1.37797
LeftToes  -21.8237 1.83942e-006 5.51297e-008
14
root  -36.7125 34.7143 9.23777 -171.219 82.5547 -179.185
RightUpLeg  -10.1283 -14.3565 -0.822493
RightLeg  9.20374 0.160678 0.0165955
RightFoot  3.70015 0.0175927 0.133149
RightToes  -26.23 -0.118828 -0.225055
Spine  -1.99187 0.0346029 0.465599
Spine1  -4.06307 0.0782536 1.49584
HEad  -61.6714 -2.60055 4.85993
LeftShoulder1  -1.94126e-019 -3.10601e-018 -2.51263e-017
LeftArm  -8.4202 23.9833 -79.9912
LeftForeArm  33.5113 -17.724 -2.94544
LeftHand  -0.388208 -0.635852 7.59101
RightShoulder  -4.96962e-017 0 -2.36833e-017
RightArm  -32.7083 -24.6251 77.3624
RightForeArm  59.7973 10.9664 1.53138
RightHand  -0.353624 -1.11752 -9.75554
LeftUpLeg  -8.05575 3.62295 1.79618
LeftLeg  7.92226 14.6492 1.07316
LeftFoot  4.94102 -0.031178 1.39626
LeftToes  -21.7714 1.83942e-006 5.51297e-008
